<?xml version="1.0" encoding="UTF-8" standalone="no"?>
<!-- Created with Inkscape (http://www.inkscape.org/) -->

<svg
   xmlns:dc="http://purl.org/dc/elements/1.1/"
   xmlns:cc="http://creativecommons.org/ns#"
   xmlns:rdf="http://www.w3.org/1999/02/22-rdf-syntax-ns#"
   xmlns:svg="http://www.w3.org/2000/svg"
   xmlns="http://www.w3.org/2000/svg"
   xmlns:sodipodi="http://sodipodi.sourceforge.net/DTD/sodipodi-0.dtd"
   xmlns:inkscape="http://www.inkscape.org/namespaces/inkscape"
   width="480"
   height="1167"
   viewBox="0 0 127 308.76876"
   version="1.1"
   id="svg3747"
   inkscape:version="0.92.4 (5da689c313, 2019-01-14)"
   sodipodi:docname="RegFormPic.svg">
  <defs
     id="defs3741" />
  <sodipodi:namedview
     id="base"
     pagecolor="#ffffff"
     bordercolor="#666666"
     borderopacity="1.0"
     inkscape:pageopacity="0.0"
     inkscape:pageshadow="2"
     inkscape:zoom="0.35"
     inkscape:cx="-155.71429"
     inkscape:cy="560"
     inkscape:document-units="mm"
     inkscape:current-layer="layer1"
     showgrid="false"
     units="px"
     inkscape:pagecheckerboard="false"
     inkscape:window-width="1920"
     inkscape:window-height="986"
     inkscape:window-x="-11"
     inkscape:window-y="-11"
     inkscape:window-maximized="1" />
  <metadata
     id="metadata3744">
    <rdf:RDF>
      <cc:Work
         rdf:about="">
        <dc:format>image/svg+xml</dc:format>
        <dc:type
           rdf:resource="http://purl.org/dc/dcmitype/StillImage" />
        <dc:title></dc:title>
      </cc:Work>
    </rdf:RDF>
  </metadata>
  <g
     inkscape:label="Layer 1"
     inkscape:groupmode="layer"
     id="layer1"
     transform="translate(0,11.768763)">
    <g
       id="g3858"
       transform="matrix(0.22161923,0,0,0.47487554,3.381773,25.739988)">
      <path
         style="fill:#fefefe"
         d="M 0,275 V 0 H 281.5 563 V 275 550 H 281.5 0 Z"
         id="path3874"
         inkscape:connector-curvature="0" />
      <path
         style="fill:#fefcfc"
         d="M 235,549.36897 C 179.46105,542.60704 115.71675,509.84325 62.659513,460.78806 44.070289,443.601 25.316665,419.52993 15.856235,400.71407 10.70496,390.46869 4.6096834,372.1348 2.3204531,360 0.07080088,348.075 -0.24223768,304.1627 1.8107494,288.5 5.9914467,256.60453 16.087744,202.55864 23.013653,175 42.657317,96.836587 72.419857,52.43601 121.5,28.075353 170.30172,3.8528902 249.49016,-5.3690435 332,3.5614579 c 53.99175,5.8438289 95.79316,18.4032191 128.24876,38.5328211 19.32001,11.98265 41.9895,32.619084 55.03905,50.103015 24.90303,33.365356 40.79028,75.116856 46.20843,121.435236 1.74245,14.89574 1.99232,47.96753 0.4563,60.3937 -4.35003,35.19104 -16.05569,64.00657 -38.05294,93.6739 -25.64524,34.58731 -83.02956,89.92763 -129.3996,124.79045 -37.80774,28.42534 -75.72096,47.34756 -109.5,54.65067 -7.19717,1.55604 -13.98446,2.12663 -28,2.35388 -10.175,0.16498 -20.075,0.10821 -22,-0.12616 z"
         id="path3872"
         inkscape:connector-curvature="0" />
      <path
         style="fill:#fefcfb"
         d="M 230.82442,548.53937 C 184.22795,541.86918 132.32157,517.45279 85.81402,480.32751 38.711466,442.72727 11.683326,404.80175 3.6243015,365 -0.37010038,345.27253 -1.1353633,319.75457 1.5115473,294.54947 4.0626014,270.25717 12.42568,221.93852 19.607159,190 47.900117,64.171434 97.846867,16.641062 215.50998,3.574772 248.59524,-0.09928967 270.1704,-0.75868585 299,1.0230877 c 95.94579,5.929797 153.21348,26.3402153 197.6226,70.4334313 33.21253,32.976271 55.29283,78.999931 63.41202,132.174551 3.06156,20.05087 3.78645,53.46546 1.54197,71.07833 -4.57705,35.91702 -16.03862,63.80528 -38.50934,93.70083 -31.87851,42.4119 -100.69876,106.06243 -150.80857,139.47996 -29.70753,19.81154 -59.76393,33.21405 -87.75868,39.13268 -13.02438,2.7536 -39.75724,3.50889 -53.67558,1.5165 z"
         id="path3870"
         inkscape:connector-curvature="0" />
      <path
         style="fill:#fefafa"
         d="M 231,548.45643 C 193.01531,543.16261 152.84003,526.62189 113,499.87422 56.623514,462.02434 22.054119,422.59602 7.9968508,380.11228 1.8538379,361.54692 0.57984395,352.13477 0.53705621,325 0.49623244,299.11072 1.1343703,292.40192 7.0925584,256.08145 22.45727,162.41984 39.079139,111.38915 66.086625,74.964158 75.10663,62.798879 91.823413,46.539924 102.91475,39.144653 153.37679,5.4985477 242.59565,-7.2039526 342,5.1049861 411.3916,13.697537 459.18276,34.230237 496.52815,71.495506 539.14449,114.02041 562.98472,176.96976 562.99537,247 c 0.006,42.14259 -10.115,77.43727 -31.22146,108.87328 C 509.45241,389.119 469.8919,429.97711 418.5,472.86263 c -51.16673,42.69762 -93.31962,65.8483 -135.05473,74.17304 -14.22556,2.83752 -37.71393,3.47383 -52.44527,1.42076 z"
         id="path3868"
         inkscape:connector-curvature="0" />
      <path
         style="fill:#fefaf8"
         d="M 235,548.8774 C 179.09597,542.44374 111.95042,507.44498 60.65063,458 15.163428,414.15745 -1.5903922,375.00301 0.31803017,317 0.96644991,297.29247 2.5000575,283.89321 7.5859009,253.5 11.88192,227.82682 16.066736,206.25307 20.536963,186.7341 44.785837,80.852936 85.808716,31.976777 167.09327,12.121553 199.66003,4.1665337 249.7896,-0.94635374 282,0.40182161 380.75646,4.5353017 438.26164,21.651979 485.11188,60.858997 524.90143,94.157215 552.08462,147.4502 560.67427,209 c 2.44735,17.53674 2.44499,58.37443 -0.004,72.5 -7.17241,41.36642 -22.667,71.50342 -56.04109,109 -38.21676,42.93744 -94.99839,92.98237 -134.83695,118.83959 -28.3307,18.38805 -51.86291,29.13115 -77.8756,35.55237 -20.21108,4.98909 -37.60941,6.20737 -56.91642,3.98544 z"
         id="path3866"
         inkscape:connector-curvature="0" />
      <path
         style="fill:#fef9f8"
         d="M 236.61649,548.97184 C 179.21445,542.41251 112.60845,507.91085 60.299457,457.64027 9.4026653,408.72686 -6.2997653,362.84411 2.4791626,288.68846 4.2599092,273.64649 10.776764,234.26967 15.059492,212.67428 35.359991,110.31028 63.98924,59.582443 118,30.275191 155.54262,9.9038594 227.58044,-2.3163849 290.82317,0.95807304 350.45073,4.0453526 393.30432,12.017437 428.83617,26.632736 510.02067,60.026312 558.89108,137.05076 562.62706,237.5 c 1.90197,51.13835 -10.50924,91.9673 -39.73646,130.72032 -29.13427,38.62978 -91.38507,97.45437 -139.28407,131.61804 -34.37592,24.51841 -69.71799,40.99609 -101.1425,47.15608 -12.50422,2.45115 -33.70116,3.36537 -45.84754,1.9774 z"
         id="path3864"
         inkscape:connector-curvature="0" />
      <path
         style="fill:#fef8f6"
         d="M 238.30144,549.00396 C 188.64545,543.77306 135.35256,519.37964 84,478.37651 43.223503,445.81798 16.955219,410.70259 6.6685809,375 1.9352219,358.57159 0.6555932,348.0788 0.63189679,325.5 0.6068963,301.67863 1.9759757,288.1461 8.0678585,252 22.603042,165.75569 37.949168,116.65985 61.091862,82.363867 83.578801,49.039664 112.43148,28.547877 155,15.668304 185.68183,6.3851797 231.08844,0.59141608 272,0.73941431 327.443,0.93998028 382.80551,9.44754 420.71725,23.592801 506.57199,55.626091 557.74652,132.25866 562.56083,236 c 2.63719,56.82757 -12.50702,100.15361 -51.20695,146.49781 -14.32632,17.15615 -51.59658,54.50265 -72.85388,73.0029 -66.5428,57.91229 -110.35653,83.13886 -160,92.12297 -10.13549,1.83425 -29.5583,2.50116 -40.19856,1.38028 z"
         id="path3862"
         inkscape:connector-curvature="0" />
      <path
         style="fill:#fef6f4"
         d="M 239.35441,548.9088 C 208.64447,546.16822 169.89814,533.11555 137.37274,514.55372 81.663426,482.76113 36.36196,439.93902 16.715413,400.5 -1.4446888,364.04491 -4.0485848,325.68011 7.0775869,258.5 23.795219,157.55851 41.121899,106.10972 70.583835,69.928413 101.9841,31.366702 145.00191,12.023696 217.12774,4.0347718 256.3222,-0.30655156 285.27463,-0.31389099 328,4.0066657 407.67552,12.063766 459.35644,33.397004 499.02656,74.6043 c 21.83568,22.681797 37.25775,48.31218 48.49441,80.59426 14.71671,42.28002 19.06955,93.63834 11.34026,133.80144 -3.95611,20.55681 -12.04739,41.59714 -22.91661,59.59168 C 517.87029,378.51465 482.21009,417.12103 433,460.0414 c -65.24718,56.90769 -114.29485,83.29784 -165.21059,88.89174 -10.74541,1.18055 -14.97399,1.17693 -28.435,-0.0243 z"
         id="path3860"
         inkscape:connector-curvature="0" />
    </g>
    <g
       id="g3969"
       transform="matrix(0,-0.33562799,0.37023712,0,27.271882,242.9325)">
      <path
         style="fill:#ced1d1;stroke-width:0.66666669"
         d="m 182.20346,77.705931 c -2.57181,-0.606286 -9.18168,-3.76118 -11.45251,-5.466287 -1.23935,-0.93059 -1.17414,-1.149251 1.91325,-6.415499 3.10759,-5.300702 3.23575,-5.42291 4.61641,-4.401716 0.78104,0.577696 3.31119,1.976222 5.62253,3.107835 3.54914,1.737617 4.76532,2.010801 7.82301,1.757235 4.2371,-0.351374 6.30787,-1.870974 6.30787,-4.62892 0,-2.601128 -1.64517,-4.036934 -8.66558,-7.562794 -11.97256,-6.01298 -15.80391,-12.147518 -13.27505,-21.255268 0.9863,-3.552228 5.88179,-8.602314 10.09662,-10.415485 2.93005,-1.260472 4.28763,-1.434038 9.14251,-1.168864 5.57398,0.304451 11.48022,2.014457 14.24192,4.123395 1.14568,0.874886 1.08236,1.170867 -1.24482,5.818724 -1.34854,2.693323 -2.52313,4.97835 -2.61019,5.077838 -0.0871,0.09949 -1.77689,-0.572582 -3.75518,-1.493488 -6.83293,-3.180766 -13.93023,-1.885334 -13.93023,2.542609 0,2.14042 1.23954,3.082723 9.33334,7.095243 6.98862,3.464631 11.88843,7.324548 13.72014,10.808309 0.52976,1.007575 0.94366,3.649415 0.94001,6 -0.0125,8.074677 -4.39153,13.880473 -12.22359,16.206347 -3.63155,1.078453 -12.55684,1.22404 -16.60046,0.270786 z m 143.49723,-0.498266 c -3.83672,-1.278378 -8.1334,-3.40069 -10.24042,-5.05817 -1.1859,-0.932888 -1.10207,-1.204568 1.90746,-6.181682 1.73133,-2.86325 3.24482,-5.311204 3.3633,-5.4399 0.11848,-0.128695 1.21866,0.531214 2.44484,1.466464 6.3804,4.866567 15.48132,5.961694 18.01462,2.167725 0.91023,-1.363204 0.52058,-4.851179 -0.65646,-5.876277 -0.64167,-0.558834 -4.23983,-2.582209 -7.99592,-4.496387 -7.77126,-3.960391 -11.4864,-7.53551 -12.83463,-12.350904 -1.98261,-7.081176 1.83163,-14.636785 9.50621,-18.830829 3.34335,-1.82709 14.28623,-1.622031 19.15767,0.358996 6.49072,2.639518 6.46177,2.573845 3.62894,8.231586 -1.34855,2.693323 -2.51467,4.969883 -2.59138,5.059022 -0.0767,0.08914 -1.46654,-0.500647 -3.08852,-1.310635 -2.16206,-1.079703 -4.17292,-1.478762 -7.53532,-1.495404 -4.22566,-0.02091 -4.69345,0.119943 -5.94912,1.791373 -2.24451,2.987656 -0.93597,4.608618 6.675,8.268726 12.35366,5.940857 16.52695,10.39087 16.48168,17.574543 -0.0459,7.290867 -3.41061,12.577874 -9.79352,15.388833 -4.83298,2.1284 -15.19421,2.498933 -20.49443,0.73292 z M 9.7014938,77.285225 c 4.471e-4,-0.287827 4.9016482,-12.67332 10.8915572,-27.52332 l 10.890744,-27 h 6.156752 6.156751 l 10.585354,26.204224 c 5.821945,14.412322 10.770423,26.787322 10.996618,27.500002 0.389185,1.226207 0.04199,1.295634 -6.466995,1.293187 l -6.878259,-0.0026 -2.006512,-5.497417 -2.006512,-5.497416 -10.326822,-0.178462 -10.326821,-0.178462 -2.005828,5.511796 -2.005828,5.511794 -6.827506,0.189987 C 12.773059,77.723051 9.7010468,77.573025 9.7014938,77.285225 Z M 40.918742,48.295853 c -1.450214,-3.739662 -2.81956,-7.095173 -3.04299,-7.45669 -0.22343,-0.361517 -1.075547,1.123206 -1.893594,3.299386 -0.818047,2.176179 -2.111657,5.531689 -2.874689,7.456689 l -1.387331,3.5 h 5.917678 5.917679 z M 73.34322,50.696134 C 67.123158,35.782835 61.934017,23.321739 61.811795,23.004809 61.689572,22.687878 64.870602,22.428571 68.88075,22.428571 h 7.291174 l 6.525174,17.166667 c 3.58884,9.441667 6.70988,17.378735 6.93564,17.63793 0.22576,0.259195 3.408407,-7.462467 7.072547,-17.159249 l 6.662065,-17.630511 7.2116,-0.0074 c 6.77901,-0.007 7.18752,0.06843 6.81025,1.257073 -0.22073,0.69547 -5.32143,13.07047 -11.3349,27.5 l -10.933569,26.23551 -5.234153,0.191327 -5.234154,0.191327 z m 40.98933,26.589091 c -0.0191,-0.287827 4.85586,-12.74273 10.83334,-27.677565 l 10.86813,-27.154245 6.07705,-0.01242 6.07706,-0.01242 10.83166,26.833334 c 5.95742,14.758333 10.97984,27.208333 11.16094,27.666666 0.25074,0.634594 -1.33647,0.833334 -6.65528,0.833334 h -6.98457 l -1.99623,-5.5 -1.99624,-5.5 -10.33112,-0.183125 -10.33112,-0.183124 -2.00152,5.516457 -2.00152,5.516458 -6.75789,0.189987 c -3.71684,0.104493 -6.77355,-0.04553 -6.79269,-0.333333 z m 33.36814,-22.656884 c 0,-0.744629 -4.81151,-13.144147 -5.3282,-13.731064 -0.25725,-0.292212 -1.53326,2.257788 -2.83558,5.666666 -1.30232,3.408879 -2.58034,6.722962 -2.84004,7.364628 -0.42791,1.057318 0.0656,1.166667 5.26582,1.166667 3.1559,0 5.738,-0.210103 5.738,-0.466897 z m 63.33333,22.84861 c 0,-0.217066 10.31086,-25.854743 21.81362,-54.238998 0.25561,-0.630749 1.94852,-0.806914 6.40652,-0.666667 l 6.05909,0.190619 10.86039,26.935005 c 5.97321,14.814253 10.86039,27.199748 10.86039,27.523321 0,0.323574 -3.04763,0.50282 -6.7725,0.398327 l -6.7725,-0.189987 -2.05195,-5.516127 -2.05196,-5.516127 -10.28068,0.182794 -10.28069,0.182794 -2.04664,5.5 -2.04665,5.5 h -6.84822 c -3.76652,0 -6.84822,-0.128227 -6.84822,-0.284954 z m 32.3649,-26.54838 c -3.34888,-8.857468 -4.17146,-10.685668 -4.53975,-10.089757 -0.55082,0.891245 -5.14806,13.162304 -5.15372,13.756424 -0.003,0.275 2.53179,0.5 5.63203,0.5 h 5.63679 z m 25.63511,-0.833333 V 22.428571 l 12.5,0.02926 c 13.47342,0.03154 15.69268,0.43398 19.84084,3.597933 3.8139,2.909006 5.30274,6.476488 5.30274,12.706139 0,4.204844 -0.30876,5.915098 -1.45922,8.082806 -1.5717,2.961376 -4.78743,6.002455 -7.60218,7.18929 l -1.75116,0.73837 9.2223,10.994767 c 5.07226,6.047121 9.23528,11.219767 9.25115,11.494767 0.0159,0.275 -3.53827,0.5 -7.89811,0.5 l -7.92697,2e-6 -8.2397,-10.682312 -8.23969,-10.682312 -0.18318,10.682312 -0.18318,10.682312 h -6.31682 -6.31682 z m 20.87716,-4.442229 c 0.80089,-0.426558 1.82163,-1.251558 2.2683,-1.833333 1.14984,-1.497625 1.04706,-6.819558 -0.16512,-8.550191 -1.10604,-1.579094 -4.7017,-2.831284 -8.14701,-2.837196 l -2.16667,-0.0037 v 7 7 h 3.37716 c 1.85744,0 4.03244,-0.349002 4.83334,-0.775562 z m 71.78951,4.442229 V 22.428571 h 6.33333 6.33333 v 11 11 h 8.66667 8.66667 v -11 -11 h 6.33333 6.33333 v 27.666667 27.666667 h -6.33333 -6.33333 v -11 -11 h -8.66667 -8.66667 v 11 11 h -6.33333 -6.33333 z m 45.5293,25.5 c 0.48429,-1.191667 5.50048,-13.641667 11.14709,-27.666667 l 10.26656,-25.5 6.02852,0.0051 6.02853,0.0051 10.83333,26.886229 c 5.95834,14.787467 10.83334,27.235177 10.83334,27.661617 0,0.537274 -2.03162,0.775354 -6.61643,0.775354 h -6.61643 l -2.13874,-5.666667 -2.13874,-5.666667 h -10.19459 -10.19459 l -2.13874,5.666667 -2.13874,5.666667 h -6.92045 -6.92045 z m 32.84881,-21.666667 c -0.20812,-0.641666 -1.52413,-4.11354 -2.92448,-7.715275 l -2.54608,-6.548608 -2.54572,6.881941 c -1.40014,3.785068 -2.68644,7.256942 -2.85844,7.715276 -0.23515,0.626654 1.12154,0.833333 5.47021,0.833333 5.20725,0 5.74525,-0.116137 5.40451,-1.166667 z m 24.28856,-3.833333 V 22.428571 h 6.66666 6.66667 v 22 22 h 9.30529 9.30529 l 0.19472,5.048438 0.1947,5.048436 4.89394,-12.215102 c 2.69166,-6.718308 7.6062,-18.90084 10.9212,-27.072293 l 6.02728,-14.857187 6.04302,0.19052 6.04302,0.190522 10.86911,26.933695 c 5.97801,14.813533 10.8691,27.199025 10.8691,27.523325 0,0.324293 -3.04763,0.504126 -6.7725,0.399633 l -6.77249,-0.189987 -2.05196,-5.516127 -2.05195,-5.516127 -10.28069,0.182794 -10.28068,0.182794 -2.04664,5.5 -2.04665,5.5 h -22.84822 -22.84822 z m 64.2261,0.5 c -0.94278,-2.475 -2.16562,-5.798718 -2.71742,-7.38604 -0.55179,-1.587321 -1.24034,-2.637321 -1.5301,-2.333333 -0.60176,0.631315 -5.31191,12.708022 -5.31191,13.619608 0,0.32987 2.53655,0.599765 5.63679,0.599765 h 5.63679 z"
         id="path3983"
         inkscape:connector-curvature="0" />
      <path
         style="fill:#a3c7cb;stroke-width:0.66666669"
         d="m 181.77044,77.410745 c -3.43071,-0.95804 -8.32097,-3.322241 -10.96733,-5.302183 -1.16842,-0.874175 -1.06965,-1.19004 1.9451,-6.220682 l 3.17602,-5.299746 3.38823,2.115283 c 4.94842,3.089317 6.7344,3.725154 10.46342,3.725154 5.2254,0 7.23016,-1.419701 7.24794,-5.132739 0.0125,-2.625461 -2.06098,-4.326756 -9.60801,-7.883139 -11.67227,-5.500317 -15.69876,-13.86878 -11.05379,-22.973668 1.75355,-3.437248 6.15518,-7.064972 10.20373,-8.409682 5.66525,-1.881693 16.72433,-0.159794 21.50815,3.348815 1.25942,0.923699 1.22762,1.081953 -1.20816,6.013844 -2.43426,4.928777 -2.54198,5.039272 -4,4.103047 -0.82411,-0.529174 -3.22838,-1.458351 -5.34282,-2.064838 -5.9853,-1.716774 -10.4889,-0.148661 -10.4889,3.652143 0,2.488585 2.02004,4.121635 9.33334,7.545319 7.20713,3.373985 11.42195,6.720948 13.43655,10.669895 1.13947,2.233542 1.3318,3.547095 1.06511,7.274385 -0.47437,6.629971 -2.7989,10.131646 -8.7367,13.161002 -4.03382,2.057976 -5.17166,2.324583 -10.64088,2.49331 -3.96708,0.12238 -7.39098,-0.16486 -9.721,-0.81552 z m 144.97716,-0.0033 c -4.00261,-1.098403 -10.39607,-4.372612 -11.28258,-5.77801 -0.48129,-0.763014 0.0978,-2.307887 2.24676,-5.993659 l 2.89519,-4.965684 3.63889,2.191223 c 4.99256,3.006364 7.65346,3.771137 11.89672,3.419253 3.89376,-0.3229 5.2303,-1.204252 5.88526,-3.88089 0.64798,-2.648111 -1.75438,-5.005635 -8.5651,-8.405252 -7.41947,-3.703481 -9.85492,-5.480093 -11.77816,-8.591963 -4.73505,-7.661473 -1.90423,-17.0737 6.5661,-21.83167 5.23063,-2.938156 10.9447,-3.217304 18.25464,-0.89179 8.4545,2.689638 8.4103,2.619466 5.43648,8.629451 l -2.48526,5.022617 -2.52256,-1.286917 c -7.77716,-3.967534 -15.23329,-2.675373 -15.23329,2.640029 0,1.782625 3.08905,4.000963 10.10154,7.254218 5.90444,2.739206 11.25323,6.975338 12.94965,10.255852 2.62775,5.081504 0.13766,15.24274 -4.62569,18.875925 -5.18286,3.953154 -15.67605,5.451081 -23.37859,3.337341 z M 9.7006811,77.500271 c 0,-0.23022 12.0697069,-30.253539 21.8044279,-54.238366 0.234387,-0.577493 2.130868,-0.833334 6.177285,-0.833334 h 5.839061 l 10.763218,26.687478 c 5.91977,14.678113 10.835096,27.053113 10.922948,27.500002 0.116965,0.594987 -1.608439,0.81252 -6.444654,0.81252 h -6.604383 l -2.047396,-5.5 -2.047396,-5.5 H 37.635668 27.207544 l -1.995543,5.5 -1.995543,5.5 -6.757889,0.189987 c -3.716838,0.104493 -6.7578879,0.05127 -6.7578879,-0.118287 z M 41.928756,50.595238 c -0.941695,-2.475 -2.192961,-5.775 -2.78059,-7.333333 -0.587629,-1.558334 -1.263114,-2.833334 -1.501078,-2.833334 -0.237963,0 -1.492871,2.775 -2.788685,6.166667 -1.295813,3.391667 -2.568502,6.691667 -2.828198,7.333333 -0.429013,1.06002 0.08008,1.166667 5.569275,1.166667 h 6.041451 z m 34.842368,7.986139 C 72.409867,48.047334 67.250486,35.603571 65.305833,30.928571 l -3.535734,-8.5 h 7.134635 7.134637 l 6.663987,17.654462 c 3.6652,9.709955 6.84242,17.659955 7.0605,17.666667 0.21808,0.0067 3.392767,-7.862795 7.054853,-17.487795 l 6.658349,-17.5 7.19211,-0.190036 c 5.64642,-0.149194 7.11962,-0.0059 6.85482,0.666667 -0.1855,0.471186 -5.36929,12.931702 -11.51952,27.690035 l -11.182245,26.833334 -5.060767,-0.01386 -5.060774,-0.01386 z m 37.597046,18.680528 c 4.4e-4,-0.275 4.90088,-12.65 10.88985,-27.5 l 10.88904,-27 5.94348,-0.185444 5.94348,-0.185444 10.83333,26.920775 c 5.95834,14.806427 10.83334,27.275739 10.83334,27.709586 0,0.56628 -1.82778,0.73498 -6.479,0.598 l -6.47898,-0.190807 -2.06293,-5.333333 -2.06292,-5.333333 -10.40157,-0.183308 -10.40156,-0.183309 -2.14502,5.683309 -2.14502,5.683308 h -6.57817 c -3.61799,0 -6.5778,-0.225 -6.57735,-0.5 z m 33.03186,-24.333334 c -0.49461,-1.191666 -1.87402,-4.701098 -3.06537,-7.798738 l -2.16609,-5.632072 -2.5517,6.557886 c -1.40344,3.606838 -2.72893,7.11627 -2.94554,7.798738 -0.36416,1.147398 0.0589,1.240853 5.61708,1.240853 h 6.01091 z m 64.29135,24.02414 c -0.005,-0.471606 4.85684,-12.942911 10.80435,-27.714002 l 10.81367,-26.856528 5.91234,0.189862 5.91234,0.189862 10.58363,26.204224 c 5.821,14.412322 10.76871,26.787322 10.9949,27.500002 0.38856,1.22424 0.0435,1.295774 -6.25008,1.295774 h -6.66136 l -2.13874,-5.666667 -2.13874,-5.666667 -10.4115,0.0026 -10.4115,0.0026 -2.00573,5.497416 -2.00572,5.497416 -6.49428,0.190807 c -4.94374,0.145253 -6.4965,-0.01393 -6.50358,-0.666667 z m 33.23153,-22.41339 c -0.12222,-0.305755 -1.40906,-3.753914 -2.85965,-7.662577 -1.45058,-3.908663 -2.83853,-6.883499 -3.08433,-6.610749 -0.2458,0.27275 -1.05521,2.14591 -1.79869,4.162576 -0.74347,2.016667 -1.97614,5.241667 -2.73926,7.166667 l -1.3875,3.5 h 6.04583 c 3.3252,0 5.94583,-0.250163 5.8236,-0.555917 z m 24.55556,22.778137 c -0.24444,-0.24444 -0.44444,-12.716961 -0.44444,-27.716705 V 22.32849 l 13.16666,0.216707 c 13.08512,0.215366 13.18818,0.228626 16.63898,2.140926 4.19636,2.325454 6.5479,5.532632 7.57483,10.331042 1.56857,7.329255 -1.44143,14.56292 -7.49947,18.022807 l -3.18314,1.817968 9.31774,11.185043 c 5.12475,6.151773 9.31773,11.305168 9.31773,11.451982 0,0.14682 -3.525,0.266226 -7.83333,0.26536 l -7.83334,-0.0016 -8.33333,-10.8222 -8.33333,-10.8222 -0.18318,10.823783 -0.18318,10.823784 h -5.87238 c -3.2298,0 -6.07238,-0.2 -6.31682,-0.444447 z m 20.5444,-31.551313 c 2.20062,-0.836673 3.93419,-4.762006 3.38826,-7.672056 -0.64612,-3.444116 -3.098,-5.202805 -7.71957,-5.537099 l -3.99087,-0.288673 v 7.080127 7.080127 h 3.28994 c 1.80946,0 4.07397,-0.298092 5.03224,-0.662426 z m 71.67783,4.329093 V 22.428571 h 6.33333 6.33333 v 11 11 h 8.66667 8.66667 v -11 -11 h 6.33333 6.33333 v 27.666667 27.666667 h -6.33333 -6.33333 v -11 -11 h -8.66667 -8.66667 v 11 11 h -6.33333 -6.33333 z m 45.29853,27.190807 c -0.0191,-0.288274 4.85586,-12.752556 10.83334,-27.698398 l 10.86813,-27.174257 5.97295,0.174257 5.97294,0.174258 10.86039,26.935005 c 5.97321,14.814253 10.86039,27.189255 10.86039,27.500001 0,0.310747 -2.96096,0.564994 -6.5799,0.564994 h -6.57991 l -1.99698,-5.5 -1.99699,-5.5 h -10.49152 -10.49151 l -2.09827,5.333333 -2.09826,5.333333 -6.5,0.190807 c -3.575,0.104947 -6.51566,-0.04507 -6.5348,-0.333333 z m 33.36814,-22.634562 c 0,-0.728339 -5.526,-14.919136 -5.73013,-14.715006 -0.34125,0.341249 -5.60321,14.07187 -5.60321,14.621081 0,0.295724 2.55,0.53768 5.66667,0.53768 3.11667,0 5.66667,-0.199689 5.66667,-0.443755 z m 24,-4.556245 V 22.428571 h 6.33333 6.33333 v 21.981696 21.981696 l 9.5,0.18497 9.50001,0.184972 0.19362,5.5 0.19363,5.5 h -16.02696 -16.02696 z m 32.65767,26.857473 c -0.005,-0.471606 4.853,-12.942964 10.79544,-27.71412 l 10.80444,-26.856646 5.92592,0.18998 5.92592,0.18998 10.56516,26.160721 c 5.81084,14.388397 10.75986,26.774153 10.99782,27.523905 0.41904,1.320307 0.21894,1.357187 -6.36312,1.172607 l -6.79578,-0.190567 -1.98532,-5.5 -1.98532,-5.5 -10.43808,0.0026 -10.43808,0.0026 -2.00573,5.497416 -2.00572,5.497416 -6.49428,0.190807 c -4.94387,0.14526 -6.49642,-0.01387 -6.50327,-0.666667 z m 33.34233,-22.026944 c 0,-0.09321 -1.32673,-3.61821 -2.94828,-7.833334 -2.89145,-7.516139 -2.9632,-7.625311 -3.72264,-5.663862 -0.4259,1.1 -1.76636,4.625 -2.9788,7.833334 l -2.20443,5.833333 h 5.92707 c 3.25989,0 5.92708,-0.07626 5.92708,-0.169471 z"
         id="path3981"
         inkscape:connector-curvature="0" />
      <path
         style="fill:#b0afaf;stroke-width:0.66666669"
         d="m 181.77044,77.410745 c -3.43071,-0.95804 -8.32097,-3.322241 -10.96733,-5.302183 -1.16842,-0.874175 -1.06965,-1.19004 1.9451,-6.220682 l 3.17602,-5.299746 3.38823,2.115283 c 4.94842,3.089317 6.7344,3.725154 10.46342,3.725154 5.2254,0 7.23016,-1.419701 7.24794,-5.132739 0.0125,-2.625461 -2.06098,-4.326756 -9.60801,-7.883139 -11.67227,-5.500317 -15.69876,-13.86878 -11.05379,-22.973668 1.75355,-3.437248 6.15518,-7.064972 10.20373,-8.409682 5.66525,-1.881693 16.72433,-0.159794 21.50815,3.348815 1.25942,0.923699 1.22762,1.081953 -1.20816,6.013844 -2.43426,4.928777 -2.54198,5.039272 -4,4.103047 -0.82411,-0.529174 -3.22838,-1.458351 -5.34282,-2.064838 -5.9853,-1.716774 -10.4889,-0.148661 -10.4889,3.652143 0,2.488585 2.02004,4.121635 9.33334,7.545319 7.20713,3.373985 11.42195,6.720948 13.43655,10.669895 1.13947,2.233542 1.3318,3.547095 1.06511,7.274385 -0.47437,6.629971 -2.7989,10.131646 -8.7367,13.161002 -4.03382,2.057976 -5.17166,2.324583 -10.64088,2.49331 -3.96708,0.12238 -7.39098,-0.16486 -9.721,-0.81552 z m 146.10536,0.0084 c -4.31262,-0.936954 -12.09041,-4.660822 -12.62062,-6.042535 -0.2231,-0.581392 4.03166,-8.523733 5.42463,-10.126129 0.0851,-0.09794 1.83585,0.834203 3.89046,2.071426 7.02624,4.230984 12.88448,4.746532 16.20491,1.426098 1.80995,-1.809947 2.03999,-4.050112 0.62356,-6.072342 -0.53274,-0.760592 -3.82878,-2.774552 -7.32454,-4.475464 -10.35887,-5.040258 -14.38746,-9.691576 -14.35887,-16.578422 0.0261,-6.276936 3.6361,-11.603723 9.94889,-14.680069 4.16092,-2.027697 11.37944,-2.011005 17.43905,0.04033 2.42142,0.81971 4.96747,1.903443 5.6579,2.408295 1.20997,0.884752 1.17239,1.089342 -1.04031,5.663207 -1.73161,3.579421 -2.54842,4.640094 -3.32456,4.317109 -4.40626,-1.83362 -8.39575,-2.942075 -10.58904,-2.942075 -5.22522,0 -7.98323,4.687956 -4.60657,7.830045 0.825,0.767688 4.42297,2.814457 7.99547,4.548375 10.58282,5.136378 14.50454,9.501084 14.50454,16.142929 0,9.013185 -5.32284,14.966643 -14.97692,16.751298 -4.9456,0.91424 -7.61097,0.855727 -12.84798,-0.282053 z M 9.7006811,77.500271 c 0,-0.23022 12.0697069,-30.253539 21.8044279,-54.238366 0.234387,-0.577493 2.130868,-0.833334 6.177285,-0.833334 h 5.839061 l 10.763218,26.687478 c 5.91977,14.678113 10.835096,27.053113 10.922948,27.500002 0.116965,0.594987 -1.608439,0.81252 -6.444654,0.81252 h -6.604383 l -2.047396,-5.5 -2.047396,-5.5 H 37.635668 27.207544 l -1.995543,5.5 -1.995543,5.5 -6.757889,0.189987 c -3.716838,0.104493 -6.7578879,0.05127 -6.7578879,-0.118287 z M 41.928756,50.595238 c -0.941695,-2.475 -2.192961,-5.775 -2.78059,-7.333333 -0.587629,-1.558334 -1.263114,-2.833334 -1.501078,-2.833334 -0.237963,0 -1.492871,2.775 -2.788685,6.166667 -1.295813,3.391667 -2.568502,6.691667 -2.828198,7.333333 -0.429013,1.06002 0.08008,1.166667 5.569275,1.166667 h 6.041451 z m 34.842368,7.986139 C 72.409867,48.047334 67.250486,35.603571 65.305833,30.928571 l -3.535734,-8.5 h 7.134635 7.134637 l 6.663987,17.654462 c 3.6652,9.709955 6.84242,17.659955 7.0605,17.666667 0.21808,0.0067 3.392767,-7.862795 7.054853,-17.487795 l 6.658349,-17.5 7.19211,-0.190036 c 5.64642,-0.149194 7.11962,-0.0059 6.85482,0.666667 -0.1855,0.471186 -5.36929,12.931702 -11.51952,27.690035 l -11.182245,26.833334 -5.060767,-0.01386 -5.060774,-0.01386 z m 37.597046,18.680528 c 4.4e-4,-0.275 4.90088,-12.65 10.88985,-27.5 l 10.88904,-27 5.94348,-0.185444 5.94348,-0.185444 10.83333,26.920775 c 5.95834,14.806427 10.83334,27.275739 10.83334,27.709586 0,0.56628 -1.82778,0.73498 -6.479,0.598 l -6.47898,-0.190807 -2.06293,-5.333333 -2.06292,-5.333333 -10.40157,-0.183308 -10.40156,-0.183309 -2.14502,5.683309 -2.14502,5.683308 h -6.57817 c -3.61799,0 -6.5778,-0.225 -6.57735,-0.5 z m 33.03186,-24.333334 c -0.49461,-1.191666 -1.87402,-4.701098 -3.06537,-7.798738 l -2.16609,-5.632072 -2.5517,6.557886 c -1.40344,3.606838 -2.72893,7.11627 -2.94554,7.798738 -0.36416,1.147398 0.0589,1.240853 5.61708,1.240853 h 6.01091 z m 64.29135,24.02414 c -0.005,-0.471606 4.85684,-12.942911 10.80435,-27.714002 l 10.81367,-26.856528 5.91234,0.189862 5.91234,0.189862 10.58363,26.204224 c 5.821,14.412322 10.76871,26.787322 10.9949,27.500002 0.38856,1.22424 0.0435,1.295774 -6.25008,1.295774 h -6.66136 l -2.13874,-5.666667 -2.13874,-5.666667 -10.4115,0.0026 -10.4115,0.0026 -2.00573,5.497416 -2.00572,5.497416 -6.49428,0.190807 c -4.94374,0.145253 -6.4965,-0.01393 -6.50358,-0.666667 z m 33.23153,-22.41339 c -0.12222,-0.305755 -1.40906,-3.753914 -2.85965,-7.662577 -1.45058,-3.908663 -2.83853,-6.883499 -3.08433,-6.610749 -0.2458,0.27275 -1.05521,2.14591 -1.79869,4.162576 -0.74347,2.016667 -1.97614,5.241667 -2.73926,7.166667 l -1.3875,3.5 h 6.04583 c 3.3252,0 5.94583,-0.250163 5.8236,-0.555917 z m 24.55556,22.778137 c -0.24444,-0.24444 -0.44444,-12.716961 -0.44444,-27.716705 V 22.32849 l 13.16666,0.216707 c 13.08512,0.215366 13.18818,0.228626 16.63898,2.140926 4.19636,2.325454 6.5479,5.532632 7.57483,10.331042 1.56857,7.329255 -1.44143,14.56292 -7.49947,18.022807 l -3.18314,1.817968 9.31774,11.185043 c 5.12475,6.151773 9.31773,11.305168 9.31773,11.451982 0,0.14682 -3.525,0.266226 -7.83333,0.26536 l -7.83334,-0.0016 -8.33333,-10.8222 -8.33333,-10.8222 -0.18318,10.823783 -0.18318,10.823784 h -5.87238 c -3.2298,0 -6.07238,-0.2 -6.31682,-0.444447 z m 20.5444,-31.551313 c 2.20062,-0.836673 3.93419,-4.762006 3.38826,-7.672056 -0.64612,-3.444116 -3.098,-5.202805 -7.71957,-5.537099 l -3.99087,-0.288673 v 7.080127 7.080127 h 3.28994 c 1.80946,0 4.07397,-0.298092 5.03224,-0.662426 z m 71.67783,4.304076 V 22.378537 l 6.16666,0.191684 6.16667,0.191684 0.18318,10.833333 0.18318,10.833333 h 8.98349 8.98348 v -11 -11 h 6 6 v 27.666667 27.666667 h -5.98388 -5.98388 l -0.18278,-11.166667 -0.18279,-11.166667 -8.83333,-0.186016 -8.83334,-0.186017 v 11.352683 11.352684 h -6.33333 -6.33333 z m 103.33333,0.02502 v -27.66667 h 6 6 v 22.333334 22.333333 h 9.33334 9.33333 v 5.333333 5.333334 h -15.33333 -15.33334 z m -57.9856,26.833333 c 0.008,-0.09167 4.92461,-12.316666 10.92597,-27.166666 l 10.91157,-27 5.66812,-0.191564 5.66812,-0.191563 2.00431,4.85823 c 2.00563,4.861435 18.42587,45.530194 19.52491,48.35823 0.58053,1.493807 0.55568,1.5 -6.01756,1.5 h -6.60049 l -1.88301,-5.331601 -1.883,-5.331602 -10.71795,-0.0017 -10.71795,-0.0017 -1.85658,5.333334 -1.8566,5.333333 h -6.59213 c -3.62567,0 -6.58565,-0.075 -6.57773,-0.166667 z m 33.9856,-21.336138 c 0,-1.120868 -6.03518,-15.441884 -6.4434,-15.289698 -0.46942,0.175 -4.64696,10.209599 -5.91928,14.218317 -0.36532,1.151004 0.068,1.240853 5.98442,1.240853 3.50805,0 6.37826,-0.07626 6.37826,-0.169472 z m 56.03925,21.002805 c 0.0216,-0.275 4.89658,-12.5 10.83334,-27.166667 l 10.79408,-26.666666 5.70866,-0.190804 5.70866,-0.190804 11.03092,27.379758 11.0309,27.379756 -6.64816,-0.188953 -6.64816,-0.188953 -1.80698,-5 -1.80698,-5 -10.729,-0.182916 -10.729,-0.182914 -1.88876,5.347849 -1.88876,5.347847 -6.5,0.002 c -3.575,6.67e-4 -6.48234,-0.223266 -6.46076,-0.498266 z m 33.29409,-21.66342 c 0,-1.226898 -5.45007,-15.171239 -5.92601,-15.162039 -0.3863,0.0075 -6.07399,14.547778 -6.07399,15.527866 0,0.255343 2.7,0.46426 6,0.46426 4.34304,0 6,-0.229237 6,-0.830087 z"
         id="path3979"
         inkscape:connector-curvature="0" />
      <path
         style="fill:#8f8d8d;stroke-width:0.66666669"
         d="m 183.73832,77.701598 c -3.86301,-0.757493 -12.61263,-4.925101 -13.12095,-6.249751 -0.32636,-0.85047 4.59868,-10.356609 5.36565,-10.356609 0.12254,0 1.92187,1.023133 3.99853,2.273628 4.96955,2.992509 9.37025,4.051225 12.89469,3.102193 2.97925,-0.802229 3.8536,-1.598404 4.4752,-4.075072 0.66292,-2.64129 -1.73706,-4.998119 -8.55537,-8.401522 -7.41947,-3.70348 -9.85492,-5.480093 -11.77816,-8.591963 -4.76339,-7.707327 -1.90544,-17.072511 6.68236,-21.89735 3.24573,-1.823534 4.27801,-2.060161 9,-2.063042 5.3709,-0.0033 12.48574,1.821505 15.39423,3.948239 1.21006,0.884819 1.17287,1.088331 -1.03138,5.644734 -1.25768,2.599752 -2.43019,4.726822 -2.60558,4.726822 -0.1754,0 -2.27494,-0.782536 -4.66564,-1.738968 -6.93662,-2.775088 -12.75788,-1.34782 -12.75788,3.128007 0,2.571909 1.14652,3.505117 9.37838,7.633554 8.30948,4.167355 11.31028,6.558061 13.243,10.550521 3.38685,6.996291 -0.0616,16.760865 -7.19301,20.367742 -4.92275,2.48979 -12.23791,3.270697 -18.72407,1.998837 z M 327.8758,77.419165 c -4.31262,-0.936954 -12.09041,-4.660822 -12.62062,-6.042535 -0.2231,-0.581392 4.03166,-8.523733 5.42463,-10.126129 0.0851,-0.09794 1.83585,0.834203 3.89046,2.071426 7.02624,4.230984 12.88448,4.746532 16.20491,1.426098 1.80995,-1.809947 2.03999,-4.050112 0.62356,-6.072342 -0.53274,-0.760592 -3.82878,-2.774552 -7.32454,-4.475464 -10.35887,-5.040258 -14.38746,-9.691576 -14.35887,-16.578422 0.0261,-6.276936 3.6361,-11.603723 9.94889,-14.680069 4.16092,-2.027697 11.37944,-2.011005 17.43905,0.04033 2.42142,0.81971 4.96747,1.903443 5.6579,2.408295 1.20997,0.884752 1.17239,1.089342 -1.04031,5.663207 -1.73161,3.579421 -2.54842,4.640094 -3.32456,4.317109 -4.40626,-1.83364 -8.39575,-2.942095 -10.58904,-2.942095 -5.22522,0 -7.98323,4.687956 -4.60657,7.830045 0.825,0.767688 4.42297,2.814457 7.99547,4.548375 10.58282,5.136378 14.50454,9.501084 14.50454,16.142929 0,9.013185 -5.32284,14.966643 -14.97692,16.751298 -4.9456,0.91424 -7.61097,0.855727 -12.84798,-0.282053 z M 84.065878,75.595238 C 83.570824,74.403571 78.595924,62.478571 73.010545,49.095238 67.425168,35.711905 62.707679,24.225992 62.527236,23.570987 c -0.302057,-1.096463 0.219689,-1.175775 6.57845,-1 l 6.906525,0.190918 6.677573,17.456478 c 3.67266,9.601063 6.83996,17.613459 7.038447,17.805324 0.198487,0.191866 3.297327,-7.38442 6.886314,-16.83619 3.588985,-9.451769 6.751125,-17.550217 7.026975,-17.99655 0.35367,-0.572249 2.47991,-0.755135 7.2115,-0.620289 l 6.70996,0.191227 -11.43115,27.492434 -11.431145,27.492432 -4.867354,0.0076 c -4.864887,0.0075 -4.867807,0.0067 -5.767453,-2.1591 z M 361.7007,50.070221 V 22.378537 l 6.16666,0.191684 6.16667,0.191684 0.18318,10.833333 0.18318,10.833333 h 8.98349 8.98348 v -11 -11 h 6 6 v 27.666667 27.666667 h -5.98388 -5.98388 l -0.18278,-11.166667 -0.18279,-11.166667 -8.83333,-0.186016 -8.83334,-0.186017 v 11.352683 11.352684 h -6.33333 -6.33333 z m 103.33333,0.02502 v -27.66667 h 6 6 v 22.333334 22.333333 h 9.33334 9.33333 v 5.333333 5.333334 h -15.33333 -15.33334 z m -446.194739,4.85569 c 4.930292,-12.203965 9.88798,-24.514026 11.017085,-27.355693 l 2.052917,-5.166667 h 5.746958 5.746957 l 10.815404,26.87496 c 5.948473,14.781227 10.815405,27.081227 10.815405,27.333334 0,0.252106 -2.925,0.457593 -6.5,0.45664 l -6.500001,-0.0017 -1.883007,-5.331598 -1.883007,-5.331602 H 37.707332 27.146661 l -1.965441,5.166667 -1.96544,5.166667 -6.670328,0.189026 -6.670328,0.189027 z m 24.861392,0.346714 c 0,-0.890536 -5.669453,-15.520054 -6.017595,-15.527866 -0.363304,-0.0082 -6.019136,14.60591 -5.995654,15.492126 0.01671,0.630485 12.013249,0.666176 12.013249,0.03574 z m 71.282607,20.297593 c 1.09904,-2.828036 17.51928,-43.496795 19.52491,-48.35823 l 2.00431,-4.85823 5.73688,0.191563 5.73688,0.191564 10.5132,26 c 5.78226,14.3 10.68823,26.525 10.90214,27.166666 0.35304,1.059034 -0.2234,1.166667 -6.24813,1.166667 h -6.63705 l -1.86214,-5.349268 -1.86214,-5.349267 -10.63588,0.1826 -10.63588,0.182602 -1.96617,5.166666 -1.96618,5.166667 h -6.59384 c -6.56634,0 -6.59141,-0.006 -6.01091,-1.5 z m 33.38406,-20.134993 c 0,-0.648162 -5.53015,-14.729339 -5.98043,-15.2277 -0.46587,-0.51562 -6.01957,13.046034 -6.01957,14.699273 0,0.60085 1.65696,0.830087 6,0.830087 3.3,0 6,-0.135748 6,-0.30166 z m 63.60729,20.468326 c 0.22914,-0.641666 5.13623,-12.937025 10.90466,-27.323019 l 10.48806,-26.156352 5.83333,-0.01031 c 3.20833,-0.0057 5.83333,0.09159 5.83333,0.216138 0,0.124548 4.9329,12.434855 10.962,27.356236 l 10.962,27.129784 -6.71326,-0.189574 -6.71327,-0.189566 -1.83153,-5 -1.83153,-5 -10.67171,-0.182804 -10.67172,-0.182802 -1.90072,5.349469 -1.90072,5.34947 h -6.58276 c -5.98356,0 -6.54484,-0.1062 -6.16616,-1.166667 z m 33.05938,-20.807324 c 0,-1.605892 -5.623,-15.336336 -6.08958,-14.869756 -0.4797,0.479692 -5.91042,14.433282 -5.91042,15.186102 0,0.178371 2.7,0.324312 6,0.324312 3.39317,0 6,-0.278348 6,-0.640658 z m 24.00001,-5.359342 V 22.428571 h 11.54566 c 13.17063,0 17.00554,0.768674 20.90172,4.189566 3.4583,3.03643 4.85667,6.532948 4.85667,12.143768 0,6.985236 -3.03703,12.181728 -8.84063,15.126717 l -1.8699,0.948869 8.6925,10.508494 c 4.78088,5.779671 8.86504,10.787664 9.07592,11.128873 0.22807,0.369033 -2.73196,0.62038 -7.30598,0.62038 h -7.6894 l -8.18328,-10.567331 -8.18328,-10.567331 -0.18318,10.567331 -0.18318,10.567331 h -6.31682 -6.31682 z m 21.84985,-4.392056 c 3.981,-2.608454 3.61295,-9.805848 -0.61321,-11.991275 -1.0104,-0.522501 -3.352,-0.950003 -5.20354,-0.950003 h -3.36644 v 7.425121 7.425121 l 3.8201,-0.448977 c 2.10105,-0.246937 4.51444,-0.903931 5.36309,-1.459987 z m 116.16455,31.558722 c 0.008,-0.09167 4.92461,-12.316666 10.92597,-27.166666 l 10.91157,-27 5.66812,-0.191564 5.66812,-0.191563 2.00431,4.85823 c 2.00563,4.861435 18.42587,45.530194 19.52491,48.35823 0.58053,1.493807 0.55568,1.5 -6.01756,1.5 h -6.60049 l -1.88301,-5.331601 -1.883,-5.331602 -10.71795,-0.0017 -10.71795,-0.0017 -1.85658,5.333334 -1.8566,5.333333 h -6.59213 c -3.62567,0 -6.58565,-0.075 -6.57773,-0.166667 z m 33.9856,-21.336138 c 0,-1.120868 -6.03518,-15.441884 -6.4434,-15.289698 -0.46942,0.175 -4.64696,10.209599 -5.91928,14.218317 -0.36532,1.151004 0.068,1.240853 5.98442,1.240853 3.50805,0 6.37826,-0.07626 6.37826,-0.169472 z m 56.03925,21.002805 c 0.0216,-0.275 4.89658,-12.5 10.83334,-27.166667 l 10.79408,-26.666666 5.70866,-0.190804 5.70866,-0.190804 11.03092,27.379758 11.0309,27.379756 -6.64816,-0.188953 -6.64816,-0.188953 -1.80698,-5 -1.80698,-5 -10.729,-0.182916 -10.729,-0.182914 -1.88876,5.347849 -1.88876,5.347847 -6.5,0.002 c -3.575,6.67e-4 -6.48234,-0.223266 -6.46076,-0.498266 z m 33.29409,-21.66342 c 0,-1.226898 -5.45007,-15.171239 -5.92601,-15.162039 -0.3863,0.0075 -6.07399,14.547778 -6.07399,15.527866 0,0.255343 2.7,0.46426 6,0.46426 4.34304,0 6,-0.229237 6,-0.830087 z"
         id="path3977"
         inkscape:connector-curvature="0" />
      <path
         style="fill:#807e7e;stroke-width:0.66666669"
         d="m 183.20913,77.459698 c -4.4009,-0.999033 -12.10078,-4.728384 -12.63457,-6.119415 -0.35201,-0.917318 4.95547,-10.245045 5.82943,-10.245045 0.30324,0 0.7409,0.306713 0.97258,0.681585 0.77915,1.260682 8.31487,4.675987 11.18553,5.069454 5.84834,0.801606 10.2397,-2.816582 8.50406,-7.006785 -0.64704,-1.562088 -2.36375,-2.787212 -8.09548,-5.777301 -11.46534,-5.981152 -14.34119,-9.71998 -13.81635,-17.962339 0.32126,-5.045347 2.48098,-8.619166 7.02935,-11.631881 4.47208,-2.962183 9.31606,-3.75457 15.49344,-2.534442 5.196,1.026289 11.3569,3.514907 11.3569,4.587472 0,0.550036 -3.82856,8.544318 -4.3867,9.159708 -0.12578,0.138675 -1.64512,-0.413667 -3.37632,-1.227427 -4.37302,-2.055565 -9.68815,-2.537661 -11.91212,-1.080461 -0.9454,0.619449 -2.0478,1.848114 -2.44978,2.730368 -1.25105,2.745748 0.68558,4.574686 9.12271,8.6154 11.99438,5.744359 15.77255,10.531133 14.69911,18.623122 -0.8586,6.472453 -4.90118,11.394283 -11.00911,13.403554 -4.53736,1.49262 -11.71637,1.80322 -16.51268,0.714433 z m 144.66667,0.002 c -4.34955,-0.989307 -12.09902,-4.725639 -12.62062,-6.084915 -0.2231,-0.581392 4.03166,-8.523732 5.42463,-10.126129 0.0851,-0.09794 1.91868,0.88408 4.07452,2.182263 2.15585,1.298184 5.11488,2.682156 6.57563,3.075494 4.90818,1.321634 9.94548,-0.486521 10.796,-3.875257 0.78764,-3.138249 -0.95692,-4.941945 -8.45025,-8.736672 -10.5027,-5.31871 -13.98899,-9.382908 -13.96038,-16.274532 0.0189,-4.537511 1.71576,-8.203593 5.28812,-11.424672 4.03746,-3.640438 6.83922,-4.675717 12.69725,-4.69176 5.04145,-0.01381 12.28335,1.854306 15.06047,3.884985 1.20997,0.884752 1.17239,1.089342 -1.04031,5.663207 -1.73161,3.579421 -2.54842,4.640093 -3.32456,4.317109 -7.88902,-3.282971 -12.1794,-3.7311 -14.93903,-1.560374 -2.03772,1.602868 -2.35762,4.58866 -0.67222,6.274064 0.5964,0.596396 4.32871,2.71146 8.29403,4.700142 3.96532,1.988682 8.32445,4.594578 9.68696,5.790878 8.57518,7.52911 5.5043,21.716615 -5.59983,25.871202 -4.7582,1.780267 -12.04507,2.208014 -17.29041,1.014967 z M 84.436438,76.291219 C 84.113658,75.450096 79.016064,63.164133 73.108456,48.989079 67.200848,34.814025 62.36735,23.028531 62.36735,22.799091 c 0,-0.22944 3.040432,-0.331669 6.756516,-0.227175 l 6.756518,0.189989 6.614107,17.333333 c 3.637753,9.533333 6.846647,17.567657 7.130867,17.854053 0.28422,0.286396 3.565813,-7.486976 7.292427,-17.274159 3.726615,-9.787184 6.888225,-17.907434 7.025785,-18.045001 0.13757,-0.137566 3.23538,-0.164195 6.88403,-0.05917 l 6.63391,0.190947 -11.39537,27.333334 -11.395369,27.333333 -4.823733,0.19598 c -4.501827,0.182907 -4.862894,0.09393 -5.4106,-1.333332 z M 361.7007,50.070221 V 22.378537 l 6.16666,0.191684 6.16667,0.191684 0.18318,10.833333 0.18318,10.833333 h 8.98349 8.98348 v -11 -11 h 6 6 v 27.666667 27.666667 h -5.98388 -5.98388 l -0.18278,-11.166667 -0.18279,-11.166667 -8.83333,-0.186016 -8.83334,-0.186017 v 11.352683 11.352684 h -6.33333 -6.33333 z m 103.33333,0.02502 v -27.66667 h 6 6 v 22.333334 22.333333 h 9.33334 9.33333 v 5.333333 5.333334 h -15.33333 -15.33334 z m -454.666682,26.5756 c 0,-0.259976 4.872561,-12.570839 10.827912,-27.357475 l 10.827913,-26.884792 5.672088,0.0153 5.672088,0.0153 10.479458,26.151364 c 5.763702,14.38325 10.675136,26.687667 10.914298,27.343148 0.40162,1.100736 -0.06213,1.177136 -6.070446,1.000002 l -6.505287,-0.191786 -1.971507,-5.182882 -1.971508,-5.182881 -10.68804,0.182881 -10.688041,0.182882 -1.831426,5 -1.831424,5 -6.418039,0.190806 c -3.529922,0.104947 -6.418039,-0.0219 -6.418039,-0.281873 z M 43.713931,55.261905 c 0.02592,-0.978282 -5.652072,-15.5 -6.060501,-15.5 -0.469742,0 -5.952748,14.021644 -5.952748,15.222912 0,0.872052 11.990157,1.148608 12.013249,0.277088 z m 81.706219,-5.267147 c 6.02096,-14.905264 10.9472,-27.216944 10.9472,-27.359289 0,-0.142344 2.59352,-0.172128 5.76338,-0.06619 l 5.76338,0.192622 10.90118,27 c 5.99564,14.85 10.90212,27.075 10.90328,27.166666 0.001,0.09167 -2.92803,0.166667 -6.50932,0.166667 h -6.51144 l -1.90072,-5.34947 -1.90072,-5.349469 -10.73092,0.182802 -10.73092,0.182804 -1.94379,5.166666 -1.94379,5.166667 h -6.527 -6.527 z m 22.9472,5.289746 c 0,-0.26257 -1.39593,-4.065811 -3.10206,-8.451645 l -3.10207,-7.974244 -3.22949,8.284978 c -1.77622,4.556738 -3.23028,8.359978 -3.23126,8.451645 -9.8e-4,0.09167 2.84822,0.166667 6.33155,0.166667 3.48333,0 6.33333,-0.21483 6.33333,-0.477401 z m 63.33334,21.603214 c 0,-0.140693 4.88711,-12.376555 10.86025,-27.190808 l 10.86026,-26.935005 5.66102,-0.190502 5.66101,-0.190501 10.821,26.857168 c 5.95156,14.771443 10.81698,27.082168 10.81207,27.357168 -0.005,0.275 -2.83359,0.5 -6.28595,0.5 h -6.27701 l -1.96618,-5.166667 -1.96618,-5.166666 -10.6639,-0.182736 -10.66389,-0.182735 -1.94901,5.182735 -1.949,5.182736 -6.47724,0.190806 c -3.56249,0.104947 -6.47725,0.0757 -6.47725,-0.06499 z m 33.33333,-21.9559 c 0,-1.222225 -5.44865,-15.169953 -5.926,-15.169679 -0.40017,2.3e-4 -6.09856,14.521658 -6.0823,15.499766 0.005,0.275 2.7083,0.5 6.0083,0.5 4.34304,0 6,-0.229237 6,-0.830087 z m 24.66667,-5.169913 V 22.428571 h 10.63386 c 5.84862,0 12.16151,0.327626 14.02866,0.728056 4.33573,0.929848 8.58959,4.138338 10.50415,7.92279 1.94078,3.836291 2.05716,11.058032 0.24258,15.053026 -1.23837,2.726405 -6.26595,7.629462 -7.82323,7.629462 -0.46236,0 -1.0214,0.292448 -1.24231,0.649884 -0.31343,0.507142 8.64649,11.940419 16.86206,21.516782 0.94504,1.101574 0.56996,1.166667 -6.72219,1.166667 h -7.72307 l -8.21359,-10.662533 -8.21358,-10.662534 -0.18318,10.662534 -0.18318,10.662533 h -5.98349 -5.98349 z m 19.63623,-3.610983 c 3.28156,-1.371123 4.61007,-3.742253 4.18915,-7.476749 -0.50158,-4.449986 -2.13001,-5.783575 -7.47808,-6.124114 l -4.3473,-0.276815 v 7.410997 7.410997 h 2.68808 c 1.47844,0 3.70511,-0.424942 4.94815,-0.944316 z m 118.82712,28.110983 c 0.61556,-1.558334 5.53692,-13.783334 10.93635,-27.166667 l 9.81714,-24.333333 5.64409,-0.191443 c 4.12295,-0.139848 5.73821,0.03983 5.99337,0.666667 1.90446,4.678732 20.73956,51.224395 21.18716,52.358109 0.58993,1.494213 0.56684,1.5 -5.98486,1.5 h -6.57708 l -1.89498,-5.333333 -1.89499,-5.333334 h -10.70849 -10.70849 l -1.93923,5.333334 -1.93922,5.333333 h -6.52499 -6.525 z m 32.86999,-18.669472 c 0,-1.120868 -6.03518,-15.441884 -6.4434,-15.289698 -0.46942,0.175 -4.64696,10.209599 -5.91928,14.218317 -0.36532,1.151004 0.068,1.240853 5.98442,1.240853 3.50805,0 6.37826,-0.07626 6.37826,-0.169472 z m 56.29293,20.360916 c 0.21918,-0.655294 5.1233,-12.891444 10.89804,-27.191444 l 10.49954,-26 5.68342,-0.19061 5.68344,-0.190609 10.81396,26.857276 c 5.94768,14.771502 10.80978,27.093139 10.80466,27.381416 -0.005,0.28828 -2.89323,0.43828 -6.41801,0.333333 l -6.4087,-0.190806 -1.80687,-5 -1.80688,-5 -10.69152,-0.182736 -10.6915,-0.182735 -1.94901,5.182735 -1.94901,5.182736 -6.53003,0.191446 c -6.02009,0.176494 -6.49891,0.0984 -6.13153,-1.000002 z m 33.04041,-21.021531 c 0,-1.238371 -5.45185,-15.169913 -5.93647,-15.169913 -0.3871,0 -6.06353,14.561898 -6.06353,15.554964 0,0.24477 2.7,0.445036 6,0.445036 4.34304,0 6,-0.229237 6,-0.830087 z"
         id="path3975"
         inkscape:connector-curvature="0" />
      <path
         style="fill:#489199;stroke-width:0.66666669"
         d="m 186.70069,77.990665 c -5.94407,-0.869007 -16.33334,-5.262388 -16.33334,-6.906986 0,-0.319204 1.26602,-2.684846 2.81338,-5.256982 l 2.81338,-4.67661 2.01996,1.353492 c 4.58785,3.074139 7.96572,4.247392 12.24434,4.252894 3.80535,0.0049 4.38399,-0.180114 5.83333,-1.865078 3.52988,-4.10372 1.6381,-6.830618 -7.98807,-11.51437 -6.51279,-3.168892 -11.05425,-7.067676 -12.42143,-10.663636 -1.02786,-2.703488 -0.7284,-8.377797 0.59555,-11.284818 1.43749,-3.156295 5.72061,-7.200528 9.24138,-8.725964 5.0648,-2.19441 15.90966,-0.988492 21.35838,2.374993 l 2.17686,1.343772 -2.31937,4.605661 -2.31938,4.60566 -3.85748,-1.586237 c -6.55285,-2.694597 -12.84719,-1.739219 -13.8098,2.096101 -0.75077,2.991322 1.13461,4.757902 9.20062,8.620885 12.07168,5.78138 16.13631,11.29462 14.47924,19.639579 -1.2634,6.362518 -5.61578,10.926305 -12.06088,12.64671 -3.06361,0.81778 -9.15092,1.308727 -11.66667,0.940934 z m 141.17511,-0.52912 c -4.34955,-0.989307 -12.09902,-4.72564 -12.62062,-6.084915 -0.2231,-0.581392 4.03166,-8.523733 5.42463,-10.126129 0.0851,-0.09794 1.91868,0.88408 4.07452,2.182263 2.15585,1.298183 5.11488,2.682155 6.57563,3.075493 4.90818,1.321635 9.94548,-0.48652 10.796,-3.875256 0.78764,-3.138249 -0.95692,-4.941945 -8.45025,-8.736672 -10.5027,-5.31871 -13.98899,-9.382908 -13.96038,-16.274532 0.0189,-4.537511 1.71576,-8.203593 5.28812,-11.424672 4.03746,-3.640438 6.83922,-4.675717 12.69725,-4.69176 5.04145,-0.01381 12.28335,1.854306 15.06047,3.884984 1.20997,0.884752 1.17239,1.089342 -1.04031,5.663208 -1.73161,3.57942 -2.54842,4.640093 -3.32456,4.317108 -7.88902,-3.28297 -12.1794,-3.731099 -14.93903,-1.560374 -2.03772,1.602869 -2.35762,4.58866 -0.67222,6.274065 0.5964,0.596396 4.32871,2.71146 8.29403,4.700142 3.96532,1.988682 8.32445,4.594577 9.68696,5.790878 8.57518,7.52911 5.5043,21.716615 -5.59983,25.871202 -4.7582,1.780267 -12.04507,2.208013 -17.29041,1.014967 z M 74.163453,51.266736 C 68.08012,36.664376 62.901083,24.191201 62.654482,23.548569 62.242485,22.474922 62.757671,22.39563 69.005924,22.571026 l 6.799807,0.190879 6.780813,17.784136 c 3.72944,9.781275 6.935367,17.935832 7.124267,18.121238 0.188907,0.185406 3.46488,-7.892456 7.27994,-17.950803 l 6.936489,-18.287905 h 6.8095 6.8095 l -11.4673,27.5 -11.467302,27.5 -4.693787,0.193954 -4.693793,0.19396 z M 361.7007,50.070221 V 22.378537 l 6.16666,0.191684 6.16667,0.191684 0.18318,10.833333 0.18318,10.833333 h 8.98349 8.98348 v -11 -11 h 6 6 v 27.666667 27.666667 h -5.98388 -5.98388 l -0.18278,-11.166667 -0.18279,-11.166667 -8.83333,-0.186016 -8.83334,-0.186017 v 11.352683 11.352684 h -6.33333 -6.33333 z m 103.33333,0.02502 v -27.66667 h 6 6 v 22.333334 22.333333 h 9.33334 9.33333 v 5.333333 5.333334 H 480.36737 465.03403 Z M 10.649898,75.928571 c 0.233861,-0.641666 5.140958,-12.944066 10.90466,-27.338664 l 10.479457,-26.171999 5.623811,0.171999 5.623811,0.171998 10.87619,26.936121 c 5.981904,14.814867 10.87619,27.050732 10.87619,27.190805 0,0.14008 -2.888118,0.168827 -6.418039,0.06387 l -6.418039,-0.190793 -1.832141,-5 -1.832141,-5 H 37.694412 26.855167 l -1.966899,5.166666 -1.966899,5.166667 h -6.348336 c -5.763573,0 -6.30917,-0.107467 -5.923135,-1.166667 z m 33.047082,-21 C 43.693352,54.112005 38.666296,40.784956 37.885149,39.521033 37.5267,38.94105 36.352256,41.652911 32.367376,52.261905 l -1.314647,3.5 h 6.323977 c 4.616711,0 6.322977,-0.224973 6.320274,-0.833334 z m 71.32917,21.666667 c -0.005,-0.275 4.86375,-12.585687 10.81796,-27.357082 l 10.82584,-26.857082 5.56542,0.190415 5.56541,0.190416 10.89543,27 10.89542,27 -5.72604,0.19428 c -3.14932,0.10686 -6.07407,0.06073 -6.49944,-0.102494 -0.42536,-0.163226 -1.60454,-2.575654 -2.6204,-5.360948 l -1.847,-5.064172 h -10.77714 -10.77713 l -1.89499,5.333334 -1.89498,5.333333 h -6.26024 c -3.44314,0 -6.2638,-0.225 -6.26812,-0.5 z m 33.3412,-21.440233 c 0,-0.833792 -5.417,-14.933626 -5.98664,-15.582548 -0.36684,-0.41789 -2.7219,5.134322 -6.51356,15.356114 -0.2338,0.63029 1.2514,0.833334 6.09554,0.833334 3.52257,0 6.40466,-0.273105 6.40466,-0.6069 z m 63.33545,21.797706 c 0.001,-0.10494 4.90764,-12.340806 10.90329,-27.190806 l 10.90118,-27 5.59671,-0.182411 5.59671,-0.182411 10.66667,26.484406 c 5.86667,14.566422 10.76367,26.873507 10.88221,27.349077 0.16519,0.662625 -1.25548,0.864672 -6.07979,0.864672 h -6.29535 l -1.94451,-5.166667 -1.94451,-5.166666 h -10.88284 -10.88284 l -1.8076,5 -1.8076,5 -6.45192,0.190806 c -3.54855,0.104947 -6.45097,0.104947 -6.44981,0 z m 33.99611,-21.357473 c -0.0121,-1.136241 -6.55661,-16.547875 -6.83541,-16.096759 -0.65725,1.063443 -5.82948,14.907318 -5.82948,15.60304 0,0.389727 2.59572,0.660386 6.33334,0.660386 3.48333,0 6.33253,-0.075 6.33155,-0.166667 z m 24.00178,-5.896916 V 22.301406 l 12.16667,0.230249 c 11.97319,0.226588 12.23027,0.262053 16.16667,2.23025 5.44702,2.723512 7.68561,5.989947 8.16062,11.90757 0.61795,7.698362 -2.18706,13.54833 -7.89178,16.45866 -1.4312,0.730144 -2.59556,1.546438 -2.58748,1.813986 0.008,0.267548 2.27252,3.18645 5.03208,6.48645 2.75956,3.3 6.82372,8.175 9.03148,10.833334 l 4.0141,4.833333 h -7.61787 -7.61787 l -8.26164,-10.761739 -8.26164,-10.761738 -0.18318,10.761738 -0.18318,10.761739 h -5.98349 -5.98349 z m 19.49894,-3.304509 c 4.73603,-1.315266 6.22824,-8.340629 2.55234,-12.016524 -1.72628,-1.726279 -2.41115,-1.948718 -6,-1.948718 h -4.05128 v 7.333334 7.333333 l 2.5,-0.0037 c 1.375,-0.0021 3.62452,-0.316014 4.99894,-0.697708 z m 118.96441,27.868092 c 0.61556,-1.558334 5.53692,-13.783334 10.93635,-27.166667 l 9.81714,-24.333333 5.64409,-0.191443 c 4.12295,-0.139848 5.73821,0.03983 5.99337,0.666667 1.90446,4.678732 20.73956,51.224395 21.18716,52.358109 0.58993,1.494213 0.56684,1.5 -5.98486,1.5 h -6.57708 l -1.89498,-5.333333 -1.89499,-5.333334 h -10.70849 -10.70849 l -1.93923,5.333334 -1.93922,5.333333 h -6.52499 -6.525 z m 32.86999,-18.669472 c 0,-1.120868 -6.03518,-15.441884 -6.4434,-15.289698 -0.46942,0.175 -4.64696,10.209599 -5.91928,14.218317 -0.36532,1.151004 0.068,1.240853 5.98442,1.240853 3.50805,0 6.37826,-0.07626 6.37826,-0.169472 z m 56.29293,20.360916 c 0.21918,-0.655294 5.1233,-12.891444 10.89804,-27.191444 l 10.49954,-26 5.68342,-0.19061 5.68344,-0.190609 10.81396,26.857276 c 5.94768,14.771502 10.80978,27.093139 10.80466,27.381416 -0.005,0.28828 -2.89323,0.43828 -6.41801,0.333333 l -6.4087,-0.190806 -1.80687,-5 -1.80688,-5 -10.69152,-0.182736 -10.6915,-0.182735 -1.94901,5.182735 -1.94901,5.182736 -6.53003,0.191446 c -6.02009,0.176494 -6.49891,0.0984 -6.13153,-1.000002 z m 33.04041,-21.021531 c 0,-1.238371 -5.45185,-15.169913 -5.93647,-15.169913 -0.3871,0 -6.06353,14.561898 -6.06353,15.554964 0,0.24477 2.7,0.445036 6,0.445036 4.34304,0 6,-0.229237 6,-0.830087 z"
         id="path3973"
         inkscape:connector-curvature="0" />
      <path
         style="fill:#686666;stroke-width:0.66666669"
         d="m 186.70069,77.990665 c -5.94407,-0.869007 -16.33334,-5.262388 -16.33334,-6.906986 0,-0.319204 1.26602,-2.684846 2.81338,-5.256982 l 2.81338,-4.67661 2.01996,1.353492 c 4.58785,3.074139 7.96572,4.247392 12.24434,4.252894 3.80535,0.0049 4.38399,-0.180114 5.83333,-1.865078 3.52988,-4.10372 1.6381,-6.830618 -7.98807,-11.51437 -6.51279,-3.168892 -11.05425,-7.067676 -12.42143,-10.663636 -1.02786,-2.703488 -0.7284,-8.377797 0.59555,-11.284818 1.43749,-3.156295 5.72061,-7.200528 9.24138,-8.725964 5.0648,-2.19441 15.90966,-0.988492 21.35838,2.374993 l 2.17686,1.343772 -2.31937,4.605661 -2.31938,4.60566 -3.85748,-1.586237 c -6.55285,-2.694597 -12.84719,-1.739219 -13.8098,2.096101 -0.75077,2.991322 1.13461,4.757902 9.20062,8.620885 12.07168,5.78138 16.13631,11.29462 14.47924,19.639579 -1.2634,6.362518 -5.61578,10.926305 -12.06088,12.64671 -3.06361,0.81778 -9.15092,1.308727 -11.66667,0.940934 z M 74.163453,51.266736 C 68.08012,36.664376 62.901083,24.191201 62.654482,23.548569 62.242485,22.474922 62.757671,22.39563 69.005924,22.571026 l 6.799807,0.190879 6.780813,17.784136 c 3.72944,9.781275 6.935367,17.935832 7.124267,18.121238 0.188907,0.185406 3.46488,-7.892456 7.27994,-17.950803 l 6.936489,-18.287905 h 6.8095 6.8095 l -11.4673,27.5 -11.467302,27.5 -4.693787,0.193954 -4.693793,0.19396 z M 10.649898,75.928571 c 0.233861,-0.641666 5.140958,-12.944066 10.90466,-27.338664 l 10.479457,-26.171999 5.623811,0.171999 5.623811,0.171998 10.87619,26.936121 c 5.981904,14.814867 10.87619,27.050732 10.87619,27.190805 0,0.14008 -2.888118,0.168827 -6.418039,0.06387 l -6.418039,-0.190793 -1.832141,-5 -1.832141,-5 H 37.694412 26.855167 l -1.966899,5.166666 -1.966899,5.166667 h -6.348336 c -5.763573,0 -6.30917,-0.107467 -5.923135,-1.166667 z m 33.047082,-21 C 43.693352,54.112005 38.666296,40.784956 37.885149,39.521033 37.5267,38.94105 36.352256,41.652911 32.367376,52.261905 l -1.314647,3.5 h 6.323977 c 4.616711,0 6.322977,-0.224973 6.320274,-0.833334 z m 71.32917,21.666667 c -0.005,-0.275 4.86375,-12.585687 10.81796,-27.357082 l 10.82584,-26.857082 5.56542,0.190415 5.56541,0.190416 10.89543,27 10.89542,27 -5.72604,0.19428 c -3.14932,0.10686 -6.07407,0.06073 -6.49944,-0.102494 -0.42536,-0.163226 -1.60454,-2.575654 -2.6204,-5.360948 l -1.847,-5.064172 h -10.77714 -10.77713 l -1.89499,5.333334 -1.89498,5.333333 h -6.26024 c -3.44314,0 -6.2638,-0.225 -6.26812,-0.5 z m 33.3412,-21.440233 c 0,-0.833792 -5.417,-14.933626 -5.98664,-15.582548 -0.36684,-0.41789 -2.7219,5.134322 -6.51356,15.356114 -0.2338,0.63029 1.2514,0.833334 6.09554,0.833334 3.52257,0 6.40466,-0.273105 6.40466,-0.6069 z m 63.33545,21.797706 c 0.001,-0.10494 4.90764,-12.340806 10.90329,-27.190806 l 10.90118,-27 5.59671,-0.182411 5.59671,-0.182411 10.66667,26.484406 c 5.86667,14.566422 10.76367,26.873507 10.88221,27.349077 0.16519,0.662625 -1.25548,0.864672 -6.07979,0.864672 h -6.29535 l -1.94451,-5.166667 -1.94451,-5.166666 h -10.88284 -10.88284 l -1.8076,5 -1.8076,5 -6.45192,0.190806 c -3.54855,0.104947 -6.45097,0.104947 -6.44981,0 z m 33.99611,-21.357473 c -0.0121,-1.136241 -6.55661,-16.547875 -6.83541,-16.096759 -0.65725,1.063443 -5.82948,14.907318 -5.82948,15.60304 0,0.389727 2.59572,0.660386 6.33334,0.660386 3.48333,0 6.33253,-0.075 6.33155,-0.166667 z m 24.00178,-5.896916 V 22.301406 l 12.16667,0.230249 c 11.97319,0.226588 12.23027,0.262053 16.16667,2.23025 5.44702,2.723512 7.68561,5.989947 8.16062,11.90757 0.61795,7.698362 -2.18706,13.54833 -7.89178,16.45866 -1.4312,0.730144 -2.59556,1.546438 -2.58748,1.813986 0.008,0.267548 2.27252,3.18645 5.03208,6.48645 2.75956,3.3 6.82372,8.175 9.03148,10.833334 l 4.0141,4.833333 h -7.61787 -7.61787 l -8.26164,-10.761739 -8.26164,-10.761738 -0.18318,10.761738 -0.18318,10.761739 h -5.98349 -5.98349 z m 19.49894,-3.304509 c 4.73603,-1.315266 6.22824,-8.340629 2.55234,-12.016524 -1.72628,-1.726279 -2.41115,-1.948718 -6,-1.948718 h -4.05128 v 7.333334 7.333333 l 2.5,-0.0037 c 1.375,-0.0021 3.62452,-0.316014 4.99894,-0.697708 z"
         id="path3971"
         inkscape:connector-curvature="0" />
    </g>
  </g>
</svg>
